Coordinates
version=1
nRows=54
nColumns=12
inDegrees=yes

Units are S.I. units (second, meters, Newtons, ...)
Angles are in degrees

endheader
time	SC_y	SC_z	SC_x	AC_y	AC_z	AC_x	GH_y	GH_z	GH_yy	EL_x	PS_y
       0.0              -21.72           32.2          8.203          31.04          4.674         0.1614           99.6          63.26          178.2          134.5          44.89
   0.01866              -21.72           32.2          8.202          31.04          4.673         0.1607           99.6          63.25          178.1          134.5           44.9
   0.03732              -21.72           32.2            8.2          31.05          4.673         0.1599          99.59          63.24          178.1          134.5          44.91
   0.05598              -21.72           32.2          8.199          31.05          4.672          0.159          99.59          63.24          178.0          134.5          44.92
   0.07464              -21.72          32.19          8.198          31.06          4.671         0.1581          99.58          63.23          177.9          134.5          44.93
    0.0933              -21.72          32.19          8.196          31.06           4.67         0.1571          99.58          63.22          177.9          134.5          44.95
     0.112              -21.72          32.19          8.194          31.07          4.669         0.1561          99.57          63.21          177.8          134.4          44.96
    0.1306              -21.72          32.19          8.193          31.07          4.668          0.155          99.56           63.2          177.7          134.4          44.97
    0.1493              -21.72          32.19          8.191          31.08          4.667         0.1538          99.55          63.19          177.7          134.4          44.99
    0.1679              -21.72          32.18          8.189          31.09          4.666         0.1526          99.55          63.18          177.6          134.4           45.0
    0.1866              -21.72          32.18          8.187          31.09          4.665         0.1512          99.54          63.16          177.5          134.3          45.02
    0.2053              -21.72          32.18          8.184           31.1          4.664         0.1497          99.53          63.15          177.4          134.3          45.04
    0.2239              -21.72          32.18          8.182          31.11          4.662         0.1482          99.52          63.14          177.3          134.3          45.06
    0.2426              -21.72          32.17          8.179          31.12          4.661         0.1465          99.51          63.12          177.2          134.3          45.08
    0.2612              -21.72          32.17          8.176          31.13          4.659         0.1446           99.5           63.1          177.1          134.2           45.1
    0.2799              -21.72          32.17          8.173          31.14          4.657         0.1426          99.48          63.08          176.9          134.2          45.13
    0.2986              -21.72          32.16           8.17          31.15          4.655         0.1405          99.47          63.06          176.8          134.2          45.15
    0.3172              -21.72          32.16          8.166          31.16          4.653         0.1381          99.45          63.04          176.6          134.1          45.18
    0.3359              -21.72          32.15          8.162          31.18          4.651         0.1355          99.44          63.02          176.5          134.1          45.22
    0.3546              -21.72          32.15          8.158          31.19          4.648         0.1327          99.42          62.99          176.3          134.0          45.25
    0.3732              -21.72          32.14          8.153          31.21          4.645         0.1296           99.4          62.96          176.1          134.0          45.29
    0.3919              -21.72          32.14          8.147          31.23          4.642         0.1262          99.38          62.93          175.9          133.9          45.33
    0.4105              -21.72          32.13          8.141          31.25          4.639         0.1224          99.35           62.9          175.6          133.8          45.38
    0.4292              -21.72          32.12          8.135          31.27          4.635         0.1182          99.33          62.86          175.4          133.7          45.43
    0.4479              -21.72          32.11          8.128          31.29          4.631         0.1135           99.3          62.82          175.0          133.7          45.49
    0.4665              -21.72           32.1          8.119          31.32          4.626         0.1084          99.26          62.77          174.7          133.6          45.55
    0.4852              -21.72          32.09           8.11          31.35          4.621         0.1025          99.23          62.72          174.3          133.5          45.63
    0.5038              -21.72          32.08            8.1          31.39          4.615        0.09601          99.19          62.66          173.9          133.3          45.71
    0.5225              -21.72          32.07          8.088          31.43          4.609        0.08862          99.14          62.59          173.4          133.2           45.8
    0.5412              -21.71          32.05          8.075          31.47          4.601        0.08023          99.09          62.51          172.9          133.1           45.9
    0.5598              -21.71          32.03           8.06          31.52          4.592        0.07066          99.02          62.42          172.3          132.9          46.02
    0.5785              -21.71          32.01          8.043          31.58          4.583        0.05967          98.95          62.32          171.6          132.7          46.16
    0.5971              -21.71          31.99          8.023          31.65          4.571        0.04699          98.87           62.2          170.7          132.5          46.32
    0.6158              -21.71          31.96            8.0          31.72          4.558        0.03225          98.78          62.07          169.8          132.2           46.5
    0.6345              -21.71          31.93          7.973          31.82          4.542          0.015          98.67          61.91          168.7          131.9          46.71
    0.6531              -21.71           31.9          7.941          31.92          4.524       -0.00533          98.54          61.72          167.3          131.5          46.97
    0.6718               -21.7          31.85          7.903          32.05          4.502       -0.02949          98.39           61.5          165.8          131.1          47.27
    0.6904               -21.7           31.8          7.858           32.2          4.476       -0.05845           98.2          61.23          163.9          130.5          47.63
    0.7091               -21.7          31.74          7.803          32.39          4.445       -0.09349          97.98          60.91          161.6          129.9          48.06
    0.7278              -21.69          31.66          7.735          32.62          4.406        -0.1363          97.71          60.52          158.8          129.1          48.59
    0.7464              -21.69          31.56          7.652           32.9          4.359        -0.1891          97.37          60.03          155.4          128.2          49.25
    0.7651              -21.68          31.44          7.549          33.24            4.3         -0.255          96.95          59.42          151.1          127.0          50.07
    0.7837              -21.67          31.29          7.419          33.68          4.225         -0.338          96.42          58.66          145.7          125.5           51.1
    0.8024              -21.66           31.1          7.253          34.24           4.13        -0.4435          95.75          57.69          138.9          123.5          52.41
    0.8211              -21.65          30.85          7.041          34.96          4.008        -0.5785          94.89          56.45          130.1          121.1          54.09
    0.8397              -21.63          30.54          6.769          35.87          3.853        -0.7517          93.79          54.85          118.9          117.9          56.24
    0.8584              -21.61          30.13          6.422          37.05          3.653        -0.9731          92.38          52.82          104.5          113.9          58.99
     0.877              -21.58          29.63          5.985          38.52          3.403         -1.251          90.61          50.25          86.46          108.9          62.45
    0.8957              -21.55          29.01          5.453          40.31          3.098          -1.59          88.45          47.13          64.45          102.7          66.66
    0.9144              -21.51          28.29          4.835          42.39          2.744         -1.984          85.95          43.51          38.94          95.55          71.55
     0.933              -21.47          27.52          4.167          44.65          2.361         -2.409          83.24           39.6          11.32          87.82          76.84
    0.9517              -21.43          26.74          3.499           46.9          1.979         -2.835          80.53          35.68         -16.31          80.08          82.12
    0.9703              -21.39          26.02          2.882          48.98          1.625         -3.228          78.03          32.06         -41.82          72.94          87.01
     0.989              -21.36          25.41           2.35          50.78           1.32         -3.567          75.87          28.94         -63.83          66.78          91.22
